<svg width="438" height="118" viewBox="0 0 438 118" fill="none" xmlns="http://www.w3.org/2000/svg">
<rect width="4" height="4" fill="#BD3636"/>
<rect x="18" width="4" height="4" fill="#BD3636"/>
<rect x="12" width="4" height="4" fill="#BD3636"/>
<rect x="6" width="4" height="4" fill="#BD3636"/>
<rect y="18" width="4" height="4" fill="#BD3636"/>
<rect x="18" y="18" width="4" height="4" fill="#BD3636"/>
<rect x="12" y="18" width="4" height="4" fill="#BD3636"/>
<rect x="6" y="18" width="4" height="4" fill="#BD3636"/>
<rect y="12" width="4" height="4" fill="#BD3636"/>
<rect x="18" y="12" width="4" height="4" fill="#BD3636"/>
<rect x="12" y="12" width="4" height="4" fill="#BD3636"/>
<rect x="6" y="12" width="4" height="4" fill="#BD3636"/>
<rect y="6" width="4" height="4" fill="#BD3636"/>
<rect x="18" y="6" width="4" height="4" fill="#BD3636"/>
<rect x="12" y="6" width="4" height="4" fill="#BD3636"/>
<rect x="6" y="6" width="4" height="4" fill="#BD3636"/>
<rect x="86" width="4" height="4" fill="#BD3636"/>
<rect x="104" width="4" height="4" fill="#BD3636"/>
<rect x="98" width="4" height="4" fill="#BD3636"/>
<rect x="92" width="4" height="4" fill="#BD3636"/>
<rect x="86" y="18" width="4" height="4" fill="#BD3636"/>
<rect x="104" y="18" width="4" height="4" fill="#BD3636"/>
<rect x="98" y="18" width="4" height="4" fill="#BD3636"/>
<rect x="92" y="18" width="4" height="4" fill="#BD3636"/>
<rect x="86" y="12" width="4" height="4" fill="#BD3636"/>
<rect x="104" y="12" width="4" height="4" fill="#BD3636"/>
<rect x="98" y="12" width="4" height="4" fill="#BD3636"/>
<rect x="92" y="12" width="4" height="4" fill="#BD3636"/>
<rect x="86" y="6" width="4" height="4" fill="#BD3636"/>
<rect x="104" y="6" width="4" height="4" fill="#BD3636"/>
<rect x="98" y="6" width="4" height="4" fill="#BD3636"/>
<rect x="92" y="6" width="4" height="4" fill="#BD3636"/>
<rect x="134" width="4" height="4" fill="#BD3636"/>
<rect x="152" width="4" height="4" fill="#BD3636"/>
<rect x="146" width="4" height="4" fill="#BD3636"/>
<rect x="140" width="4" height="4" fill="#BD3636"/>
<rect x="134" y="18" width="4" height="4" fill="#BD3636"/>
<rect x="152" y="18" width="4" height="4" fill="#BD3636"/>
<rect x="146" y="18" width="4" height="4" fill="#BD3636"/>
<rect x="140" y="18" width="4" height="4" fill="#BD3636"/>
<rect x="134" y="12" width="4" height="4" fill="#BD3636"/>
<rect x="152" y="12" width="4" height="4" fill="#BD3636"/>
<rect x="146" y="12" width="4" height="4" fill="#BD3636"/>
<rect x="140" y="12" width="4" height="4" fill="#BD3636"/>
<rect x="134" y="6" width="4" height="4" fill="#BD3636"/>
<rect x="152" y="6" width="4" height="4" fill="#BD3636"/>
<rect x="146" y="6" width="4" height="4" fill="#BD3636"/>
<rect x="140" y="6" width="4" height="4" fill="#BD3636"/>
<rect x="134" y="24" width="4" height="4" fill="#BD3636"/>
<rect x="152" y="24" width="4" height="4" fill="#BD3636"/>
<rect x="146" y="24" width="4" height="4" fill="#BD3636"/>
<rect x="140" y="24" width="4" height="4" fill="#BD3636"/>
<rect x="134" y="42" width="4" height="4" fill="#BD3636"/>
<rect x="152" y="42" width="4" height="4" fill="#BD3636"/>
<rect x="146" y="42" width="4" height="4" fill="#BD3636"/>
<rect x="140" y="42" width="4" height="4" fill="#BD3636"/>
<rect x="134" y="36" width="4" height="4" fill="#BD3636"/>
<rect x="152" y="36" width="4" height="4" fill="#BD3636"/>
<rect x="146" y="36" width="4" height="4" fill="#BD3636"/>
<rect x="140" y="36" width="4" height="4" fill="#BD3636"/>
<rect x="134" y="30" width="4" height="4" fill="#BD3636"/>
<rect x="152" y="30" width="4" height="4" fill="#BD3636"/>
<rect x="146" y="30" width="4" height="4" fill="#BD3636"/>
<rect x="140" y="30" width="4" height="4" fill="#BD3636"/>
<rect x="110" y="48" width="4" height="4" fill="#BD3636"/>
<rect x="128" y="48" width="4" height="4" fill="#BD3636"/>
<rect x="122" y="48" width="4" height="4" fill="#BD3636"/>
<rect x="116" y="48" width="4" height="4" fill="#BD3636"/>
<rect x="110" y="66" width="4" height="4" fill="#BD3636"/>
<rect x="128" y="66" width="4" height="4" fill="#BD3636"/>
<rect x="122" y="66" width="4" height="4" fill="#BD3636"/>
<rect x="116" y="66" width="4" height="4" fill="#BD3636"/>
<rect x="110" y="60" width="4" height="4" fill="#BD3636"/>
<rect x="128" y="60" width="4" height="4" fill="#BD3636"/>
<rect x="122" y="60" width="4" height="4" fill="#BD3636"/>
<rect x="116" y="60" width="4" height="4" fill="#BD3636"/>
<rect x="110" y="54" width="4" height="4" fill="#BD3636"/>
<rect x="128" y="54" width="4" height="4" fill="#BD3636"/>
<rect x="122" y="54" width="4" height="4" fill="#BD3636"/>
<rect x="116" y="54" width="4" height="4" fill="#BD3636"/>
<rect x="86" y="48" width="4" height="4" fill="#BD3636"/>
<rect x="104" y="48" width="4" height="4" fill="#BD3636"/>
<rect x="98" y="48" width="4" height="4" fill="#BD3636"/>
<rect x="92" y="48" width="4" height="4" fill="#BD3636"/>
<rect x="86" y="66" width="4" height="4" fill="#BD3636"/>
<rect x="104" y="66" width="4" height="4" fill="#BD3636"/>
<rect x="98" y="66" width="4" height="4" fill="#BD3636"/>
<rect x="92" y="66" width="4" height="4" fill="#BD3636"/>
<rect x="86" y="60" width="4" height="4" fill="#BD3636"/>
<rect x="104" y="60" width="4" height="4" fill="#BD3636"/>
<rect x="98" y="60" width="4" height="4" fill="#BD3636"/>
<rect x="92" y="60" width="4" height="4" fill="#BD3636"/>
<rect x="86" y="54" width="4" height="4" fill="#BD3636"/>
<rect x="104" y="54" width="4" height="4" fill="#BD3636"/>
<rect x="98" y="54" width="4" height="4" fill="#BD3636"/>
<rect x="92" y="54" width="4" height="4" fill="#BD3636"/>
<rect x="134" y="48" width="4" height="4" fill="#BD3636"/>
<rect x="152" y="48" width="4" height="4" fill="#BD3636"/>
<rect x="146" y="48" width="4" height="4" fill="#BD3636"/>
<rect x="140" y="48" width="4" height="4" fill="#BD3636"/>
<rect x="134" y="66" width="4" height="4" fill="#BD3636"/>
<rect x="152" y="66" width="4" height="4" fill="#BD3636"/>
<rect x="146" y="66" width="4" height="4" fill="#BD3636"/>
<rect x="140" y="66" width="4" height="4" fill="#BD3636"/>
<rect x="134" y="60" width="4" height="4" fill="#BD3636"/>
<rect x="152" y="60" width="4" height="4" fill="#BD3636"/>
<rect x="146" y="60" width="4" height="4" fill="#BD3636"/>
<rect x="140" y="60" width="4" height="4" fill="#BD3636"/>
<rect x="134" y="54" width="4" height="4" fill="#BD3636"/>
<rect x="152" y="54" width="4" height="4" fill="#BD3636"/>
<rect x="146" y="54" width="4" height="4" fill="#BD3636"/>
<rect x="140" y="54" width="4" height="4" fill="#BD3636"/>
<rect x="86" y="72" width="4" height="4" fill="#BD3636"/>
<rect x="104" y="72" width="4" height="4" fill="#BD3636"/>
<rect x="98" y="72" width="4" height="4" fill="#BD3636"/>
<rect x="92" y="72" width="4" height="4" fill="#BD3636"/>
<rect x="86" y="90" width="4" height="4" fill="#BD3636"/>
<rect x="104" y="90" width="4" height="4" fill="#BD3636"/>
<rect x="98" y="90" width="4" height="4" fill="#BD3636"/>
<rect x="92" y="90" width="4" height="4" fill="#BD3636"/>
<rect x="86" y="84" width="4" height="4" fill="#BD3636"/>
<rect x="104" y="84" width="4" height="4" fill="#BD3636"/>
<rect x="98" y="84" width="4" height="4" fill="#BD3636"/>
<rect x="92" y="84" width="4" height="4" fill="#BD3636"/>
<rect x="86" y="78" width="4" height="4" fill="#BD3636"/>
<rect x="104" y="78" width="4" height="4" fill="#BD3636"/>
<rect x="98" y="78" width="4" height="4" fill="#BD3636"/>
<rect x="92" y="78" width="4" height="4" fill="#BD3636"/>
<rect x="86" y="96" width="4" height="4" fill="#BD3636"/>
<rect x="104" y="96" width="4" height="4" fill="#BD3636"/>
<rect x="98" y="96" width="4" height="4" fill="#BD3636"/>
<rect x="92" y="96" width="4" height="4" fill="#BD3636"/>
<rect x="86" y="114" width="4" height="4" fill="#BD3636"/>
<rect x="104" y="114" width="4" height="4" fill="#BD3636"/>
<rect x="98" y="114" width="4" height="4" fill="#BD3636"/>
<rect x="92" y="114" width="4" height="4" fill="#BD3636"/>
<rect x="86" y="108" width="4" height="4" fill="#BD3636"/>
<rect x="104" y="108" width="4" height="4" fill="#BD3636"/>
<rect x="98" y="108" width="4" height="4" fill="#BD3636"/>
<rect x="92" y="108" width="4" height="4" fill="#BD3636"/>
<rect x="86" y="102" width="4" height="4" fill="#BD3636"/>
<rect x="104" y="102" width="4" height="4" fill="#BD3636"/>
<rect x="98" y="102" width="4" height="4" fill="#BD3636"/>
<rect x="92" y="102" width="4" height="4" fill="#BD3636"/>
<rect x="110" width="4" height="4" fill="#BD3636"/>
<rect x="128" width="4" height="4" fill="#BD3636"/>
<rect x="122" width="4" height="4" fill="#BD3636"/>
<rect x="116" width="4" height="4" fill="#BD3636"/>
<rect x="110" y="18" width="4" height="4" fill="#BD3636"/>
<rect x="128" y="18" width="4" height="4" fill="#BD3636"/>
<rect x="122" y="18" width="4" height="4" fill="#BD3636"/>
<rect x="116" y="18" width="4" height="4" fill="#BD3636"/>
<rect x="110" y="12" width="4" height="4" fill="#BD3636"/>
<rect x="128" y="12" width="4" height="4" fill="#BD3636"/>
<rect x="122" y="12" width="4" height="4" fill="#BD3636"/>
<rect x="116" y="12" width="4" height="4" fill="#BD3636"/>
<rect x="110" y="6" width="4" height="4" fill="#BD3636"/>
<rect x="128" y="6" width="4" height="4" fill="#BD3636"/>
<rect x="122" y="6" width="4" height="4" fill="#BD3636"/>
<rect x="116" y="6" width="4" height="4" fill="#BD3636"/>
<rect x="134" y="96" width="4" height="4" fill="#BD3636"/>
<rect x="152" y="96" width="4" height="4" fill="#BD3636"/>
<rect x="146" y="96" width="4" height="4" fill="#BD3636"/>
<rect x="140" y="96" width="4" height="4" fill="#BD3636"/>
<rect x="134" y="114" width="4" height="4" fill="#BD3636"/>
<rect x="152" y="114" width="4" height="4" fill="#BD3636"/>
<rect x="146" y="114" width="4" height="4" fill="#BD3636"/>
<rect x="140" y="114" width="4" height="4" fill="#BD3636"/>
<rect x="134" y="108" width="4" height="4" fill="#BD3636"/>
<rect x="152" y="108" width="4" height="4" fill="#BD3636"/>
<rect x="146" y="108" width="4" height="4" fill="#BD3636"/>
<rect x="140" y="108" width="4" height="4" fill="#BD3636"/>
<rect x="134" y="102" width="4" height="4" fill="#BD3636"/>
<rect x="152" y="102" width="4" height="4" fill="#BD3636"/>
<rect x="146" y="102" width="4" height="4" fill="#BD3636"/>
<rect x="140" y="102" width="4" height="4" fill="#BD3636"/>
<rect x="110" y="96" width="4" height="4" fill="#BD3636"/>
<rect x="128" y="96" width="4" height="4" fill="#BD3636"/>
<rect x="122" y="96" width="4" height="4" fill="#BD3636"/>
<rect x="116" y="96" width="4" height="4" fill="#BD3636"/>
<rect x="110" y="114" width="4" height="4" fill="#BD3636"/>
<rect x="128" y="114" width="4" height="4" fill="#BD3636"/>
<rect x="122" y="114" width="4" height="4" fill="#BD3636"/>
<rect x="116" y="114" width="4" height="4" fill="#BD3636"/>
<rect x="110" y="108" width="4" height="4" fill="#BD3636"/>
<rect x="128" y="108" width="4" height="4" fill="#BD3636"/>
<rect x="122" y="108" width="4" height="4" fill="#BD3636"/>
<rect x="116" y="108" width="4" height="4" fill="#BD3636"/>
<rect x="110" y="102" width="4" height="4" fill="#BD3636"/>
<rect x="128" y="102" width="4" height="4" fill="#BD3636"/>
<rect x="122" y="102" width="4" height="4" fill="#BD3636"/>
<rect x="116" y="102" width="4" height="4" fill="#BD3636"/>
<rect x="24" width="4" height="4" fill="#BD3636"/>
<rect x="42" width="4" height="4" fill="#BD3636"/>
<rect x="36" width="4" height="4" fill="#BD3636"/>
<rect x="30" width="4" height="4" fill="#BD3636"/>
<rect x="24" y="18" width="4" height="4" fill="#BD3636"/>
<rect x="42" y="18" width="4" height="4" fill="#BD3636"/>
<rect x="36" y="18" width="4" height="4" fill="#BD3636"/>
<rect x="30" y="18" width="4" height="4" fill="#BD3636"/>
<rect x="24" y="12" width="4" height="4" fill="#BD3636"/>
<rect x="42" y="12" width="4" height="4" fill="#BD3636"/>
<rect x="36" y="12" width="4" height="4" fill="#BD3636"/>
<rect x="30" y="12" width="4" height="4" fill="#BD3636"/>
<rect x="24" y="6" width="4" height="4" fill="#BD3636"/>
<rect x="42" y="6" width="4" height="4" fill="#BD3636"/>
<rect x="36" y="6" width="4" height="4" fill="#BD3636"/>
<rect x="30" y="6" width="4" height="4" fill="#BD3636"/>
<rect x="24" y="24" width="4" height="4" fill="#BD3636"/>
<rect x="42" y="24" width="4" height="4" fill="#BD3636"/>
<rect x="36" y="24" width="4" height="4" fill="#BD3636"/>
<rect x="30" y="24" width="4" height="4" fill="#BD3636"/>
<rect x="24" y="42" width="4" height="4" fill="#BD3636"/>
<rect x="42" y="42" width="4" height="4" fill="#BD3636"/>
<rect x="36" y="42" width="4" height="4" fill="#BD3636"/>
<rect x="30" y="42" width="4" height="4" fill="#BD3636"/>
<rect x="24" y="36" width="4" height="4" fill="#BD3636"/>
<rect x="42" y="36" width="4" height="4" fill="#BD3636"/>
<rect x="36" y="36" width="4" height="4" fill="#BD3636"/>
<rect x="30" y="36" width="4" height="4" fill="#BD3636"/>
<rect x="24" y="30" width="4" height="4" fill="#BD3636"/>
<rect x="42" y="30" width="4" height="4" fill="#BD3636"/>
<rect x="36" y="30" width="4" height="4" fill="#BD3636"/>
<rect x="30" y="30" width="4" height="4" fill="#BD3636"/>
<rect x="24" y="48" width="4" height="4" fill="#BD3636"/>
<rect x="42" y="48" width="4" height="4" fill="#BD3636"/>
<rect x="36" y="48" width="4" height="4" fill="#BD3636"/>
<rect x="30" y="48" width="4" height="4" fill="#BD3636"/>
<rect x="24" y="66" width="4" height="4" fill="#BD3636"/>
<rect x="42" y="66" width="4" height="4" fill="#BD3636"/>
<rect x="36" y="66" width="4" height="4" fill="#BD3636"/>
<rect x="30" y="66" width="4" height="4" fill="#BD3636"/>
<rect x="24" y="60" width="4" height="4" fill="#BD3636"/>
<rect x="42" y="60" width="4" height="4" fill="#BD3636"/>
<rect x="36" y="60" width="4" height="4" fill="#BD3636"/>
<rect x="30" y="60" width="4" height="4" fill="#BD3636"/>
<rect x="24" y="54" width="4" height="4" fill="#BD3636"/>
<rect x="42" y="54" width="4" height="4" fill="#BD3636"/>
<rect x="36" y="54" width="4" height="4" fill="#BD3636"/>
<rect x="30" y="54" width="4" height="4" fill="#BD3636"/>
<rect x="24" y="72" width="4" height="4" fill="#BD3636"/>
<rect x="42" y="72" width="4" height="4" fill="#BD3636"/>
<rect x="36" y="72" width="4" height="4" fill="#BD3636"/>
<rect x="30" y="72" width="4" height="4" fill="#BD3636"/>
<rect x="24" y="90" width="4" height="4" fill="#BD3636"/>
<rect x="42" y="90" width="4" height="4" fill="#BD3636"/>
<rect x="36" y="90" width="4" height="4" fill="#BD3636"/>
<rect x="30" y="90" width="4" height="4" fill="#BD3636"/>
<rect x="24" y="84" width="4" height="4" fill="#BD3636"/>
<rect x="42" y="84" width="4" height="4" fill="#BD3636"/>
<rect x="36" y="84" width="4" height="4" fill="#BD3636"/>
<rect x="30" y="84" width="4" height="4" fill="#BD3636"/>
<rect x="24" y="78" width="4" height="4" fill="#BD3636"/>
<rect x="42" y="78" width="4" height="4" fill="#BD3636"/>
<rect x="36" y="78" width="4" height="4" fill="#BD3636"/>
<rect x="30" y="78" width="4" height="4" fill="#BD3636"/>
<rect x="24" y="96" width="4" height="4" fill="#BD3636"/>
<rect x="42" y="96" width="4" height="4" fill="#BD3636"/>
<rect x="36" y="96" width="4" height="4" fill="#BD3636"/>
<rect x="30" y="96" width="4" height="4" fill="#BD3636"/>
<rect x="24" y="114" width="4" height="4" fill="#BD3636"/>
<rect x="42" y="114" width="4" height="4" fill="#BD3636"/>
<rect x="36" y="114" width="4" height="4" fill="#BD3636"/>
<rect x="30" y="114" width="4" height="4" fill="#BD3636"/>
<rect x="24" y="108" width="4" height="4" fill="#BD3636"/>
<rect x="42" y="108" width="4" height="4" fill="#BD3636"/>
<rect x="36" y="108" width="4" height="4" fill="#BD3636"/>
<rect x="30" y="108" width="4" height="4" fill="#BD3636"/>
<rect x="24" y="102" width="4" height="4" fill="#BD3636"/>
<rect x="42" y="102" width="4" height="4" fill="#BD3636"/>
<rect x="36" y="102" width="4" height="4" fill="#BD3636"/>
<rect x="30" y="102" width="4" height="4" fill="#BD3636"/>
<rect x="172" width="4" height="4" fill="#BD3636"/>
<rect x="190" width="4" height="4" fill="#BD3636"/>
<rect x="184" width="4" height="4" fill="#BD3636"/>
<rect x="178" width="4" height="4" fill="#BD3636"/>
<rect x="172" y="18" width="4" height="4" fill="#BD3636"/>
<rect x="190" y="18" width="4" height="4" fill="#BD3636"/>
<rect x="184" y="18" width="4" height="4" fill="#BD3636"/>
<rect x="178" y="18" width="4" height="4" fill="#BD3636"/>
<rect x="172" y="12" width="4" height="4" fill="#BD3636"/>
<rect x="190" y="12" width="4" height="4" fill="#BD3636"/>
<rect x="184" y="12" width="4" height="4" fill="#BD3636"/>
<rect x="178" y="12" width="4" height="4" fill="#BD3636"/>
<rect x="172" y="6" width="4" height="4" fill="#BD3636"/>
<rect x="190" y="6" width="4" height="4" fill="#BD3636"/>
<rect x="184" y="6" width="4" height="4" fill="#BD3636"/>
<rect x="178" y="6" width="4" height="4" fill="#BD3636"/>
<rect x="220" width="4" height="4" fill="#BD3636"/>
<rect x="238" width="4" height="4" fill="#BD3636"/>
<rect x="232" width="4" height="4" fill="#BD3636"/>
<rect x="226" width="4" height="4" fill="#BD3636"/>
<rect x="220" y="18" width="4" height="4" fill="#BD3636"/>
<rect x="238" y="18" width="4" height="4" fill="#BD3636"/>
<rect x="232" y="18" width="4" height="4" fill="#BD3636"/>
<rect x="226" y="18" width="4" height="4" fill="#BD3636"/>
<rect x="220" y="12" width="4" height="4" fill="#BD3636"/>
<rect x="238" y="12" width="4" height="4" fill="#BD3636"/>
<rect x="232" y="12" width="4" height="4" fill="#BD3636"/>
<rect x="226" y="12" width="4" height="4" fill="#BD3636"/>
<rect x="220" y="6" width="4" height="4" fill="#BD3636"/>
<rect x="238" y="6" width="4" height="4" fill="#BD3636"/>
<rect x="232" y="6" width="4" height="4" fill="#BD3636"/>
<rect x="226" y="6" width="4" height="4" fill="#BD3636"/>
<rect x="196" width="4" height="4" fill="#BD3636"/>
<rect x="214" width="4" height="4" fill="#BD3636"/>
<rect x="208" width="4" height="4" fill="#BD3636"/>
<rect x="202" width="4" height="4" fill="#BD3636"/>
<rect x="196" y="18" width="4" height="4" fill="#BD3636"/>
<rect x="214" y="18" width="4" height="4" fill="#BD3636"/>
<rect x="208" y="18" width="4" height="4" fill="#BD3636"/>
<rect x="202" y="18" width="4" height="4" fill="#BD3636"/>
<rect x="196" y="12" width="4" height="4" fill="#BD3636"/>
<rect x="214" y="12" width="4" height="4" fill="#BD3636"/>
<rect x="208" y="12" width="4" height="4" fill="#BD3636"/>
<rect x="202" y="12" width="4" height="4" fill="#BD3636"/>
<rect x="196" y="6" width="4" height="4" fill="#BD3636"/>
<rect x="214" y="6" width="4" height="4" fill="#BD3636"/>
<rect x="208" y="6" width="4" height="4" fill="#BD3636"/>
<rect x="202" y="6" width="4" height="4" fill="#BD3636"/>
<rect x="196" y="24" width="4" height="4" fill="#BD3636"/>
<rect x="214" y="24" width="4" height="4" fill="#BD3636"/>
<rect x="208" y="24" width="4" height="4" fill="#BD3636"/>
<rect x="202" y="24" width="4" height="4" fill="#BD3636"/>
<rect x="196" y="42" width="4" height="4" fill="#BD3636"/>
<rect x="214" y="42" width="4" height="4" fill="#BD3636"/>
<rect x="208" y="42" width="4" height="4" fill="#BD3636"/>
<rect x="202" y="42" width="4" height="4" fill="#BD3636"/>
<rect x="196" y="36" width="4" height="4" fill="#BD3636"/>
<rect x="214" y="36" width="4" height="4" fill="#BD3636"/>
<rect x="208" y="36" width="4" height="4" fill="#BD3636"/>
<rect x="202" y="36" width="4" height="4" fill="#BD3636"/>
<rect x="196" y="30" width="4" height="4" fill="#BD3636"/>
<rect x="214" y="30" width="4" height="4" fill="#BD3636"/>
<rect x="208" y="30" width="4" height="4" fill="#BD3636"/>
<rect x="202" y="30" width="4" height="4" fill="#BD3636"/>
<rect x="196" y="48" width="4" height="4" fill="#BD3636"/>
<rect x="214" y="48" width="4" height="4" fill="#BD3636"/>
<rect x="208" y="48" width="4" height="4" fill="#BD3636"/>
<rect x="202" y="48" width="4" height="4" fill="#BD3636"/>
<rect x="196" y="66" width="4" height="4" fill="#BD3636"/>
<rect x="214" y="66" width="4" height="4" fill="#BD3636"/>
<rect x="208" y="66" width="4" height="4" fill="#BD3636"/>
<rect x="202" y="66" width="4" height="4" fill="#BD3636"/>
<rect x="196" y="60" width="4" height="4" fill="#BD3636"/>
<rect x="214" y="60" width="4" height="4" fill="#BD3636"/>
<rect x="208" y="60" width="4" height="4" fill="#BD3636"/>
<rect x="202" y="60" width="4" height="4" fill="#BD3636"/>
<rect x="196" y="54" width="4" height="4" fill="#BD3636"/>
<rect x="214" y="54" width="4" height="4" fill="#BD3636"/>
<rect x="208" y="54" width="4" height="4" fill="#BD3636"/>
<rect x="202" y="54" width="4" height="4" fill="#BD3636"/>
<rect x="196" y="72" width="4" height="4" fill="#BD3636"/>
<rect x="214" y="72" width="4" height="4" fill="#BD3636"/>
<rect x="208" y="72" width="4" height="4" fill="#BD3636"/>
<rect x="202" y="72" width="4" height="4" fill="#BD3636"/>
<rect x="196" y="90" width="4" height="4" fill="#BD3636"/>
<rect x="214" y="90" width="4" height="4" fill="#BD3636"/>
<rect x="208" y="90" width="4" height="4" fill="#BD3636"/>
<rect x="202" y="90" width="4" height="4" fill="#BD3636"/>
<rect x="196" y="84" width="4" height="4" fill="#BD3636"/>
<rect x="214" y="84" width="4" height="4" fill="#BD3636"/>
<rect x="208" y="84" width="4" height="4" fill="#BD3636"/>
<rect x="202" y="84" width="4" height="4" fill="#BD3636"/>
<rect x="196" y="78" width="4" height="4" fill="#BD3636"/>
<rect x="214" y="78" width="4" height="4" fill="#BD3636"/>
<rect x="208" y="78" width="4" height="4" fill="#BD3636"/>
<rect x="202" y="78" width="4" height="4" fill="#BD3636"/>
<rect x="196" y="96" width="4" height="4" fill="#BD3636"/>
<rect x="214" y="96" width="4" height="4" fill="#BD3636"/>
<rect x="208" y="96" width="4" height="4" fill="#BD3636"/>
<rect x="202" y="96" width="4" height="4" fill="#BD3636"/>
<rect x="196" y="114" width="4" height="4" fill="#BD3636"/>
<rect x="214" y="114" width="4" height="4" fill="#BD3636"/>
<rect x="208" y="114" width="4" height="4" fill="#BD3636"/>
<rect x="202" y="114" width="4" height="4" fill="#BD3636"/>
<rect x="196" y="108" width="4" height="4" fill="#BD3636"/>
<rect x="214" y="108" width="4" height="4" fill="#BD3636"/>
<rect x="208" y="108" width="4" height="4" fill="#BD3636"/>
<rect x="202" y="108" width="4" height="4" fill="#BD3636"/>
<rect x="196" y="102" width="4" height="4" fill="#BD3636"/>
<rect x="214" y="102" width="4" height="4" fill="#BD3636"/>
<rect x="208" y="102" width="4" height="4" fill="#BD3636"/>
<rect x="202" y="102" width="4" height="4" fill="#BD3636"/>
<rect x="282" width="4" height="4" fill="#BD3636"/>
<rect x="300" width="4" height="4" fill="#BD3636"/>
<rect x="294" width="4" height="4" fill="#BD3636"/>
<rect x="288" width="4" height="4" fill="#BD3636"/>
<rect x="282" y="18" width="4" height="4" fill="#BD3636"/>
<rect x="300" y="18" width="4" height="4" fill="#BD3636"/>
<rect x="294" y="18" width="4" height="4" fill="#BD3636"/>
<rect x="288" y="18" width="4" height="4" fill="#BD3636"/>
<rect x="282" y="12" width="4" height="4" fill="#BD3636"/>
<rect x="300" y="12" width="4" height="4" fill="#BD3636"/>
<rect x="294" y="12" width="4" height="4" fill="#BD3636"/>
<rect x="288" y="12" width="4" height="4" fill="#BD3636"/>
<rect x="282" y="6" width="4" height="4" fill="#BD3636"/>
<rect x="300" y="6" width="4" height="4" fill="#BD3636"/>
<rect x="294" y="6" width="4" height="4" fill="#BD3636"/>
<rect x="288" y="6" width="4" height="4" fill="#BD3636"/>
<rect x="306" width="4" height="4" fill="#BD3636"/>
<rect x="324" width="4" height="4" fill="#BD3636"/>
<rect x="318" width="4" height="4" fill="#BD3636"/>
<rect x="312" width="4" height="4" fill="#BD3636"/>
<rect x="306" y="18" width="4" height="4" fill="#BD3636"/>
<rect x="324" y="18" width="4" height="4" fill="#BD3636"/>
<rect x="318" y="18" width="4" height="4" fill="#BD3636"/>
<rect x="312" y="18" width="4" height="4" fill="#BD3636"/>
<rect x="306" y="12" width="4" height="4" fill="#BD3636"/>
<rect x="324" y="12" width="4" height="4" fill="#BD3636"/>
<rect x="318" y="12" width="4" height="4" fill="#BD3636"/>
<rect x="312" y="12" width="4" height="4" fill="#BD3636"/>
<rect x="306" y="6" width="4" height="4" fill="#BD3636"/>
<rect x="324" y="6" width="4" height="4" fill="#BD3636"/>
<rect x="318" y="6" width="4" height="4" fill="#BD3636"/>
<rect x="312" y="6" width="4" height="4" fill="#BD3636"/>
<rect x="282" y="48" width="4" height="4" fill="#BD3636"/>
<rect x="300" y="48" width="4" height="4" fill="#BD3636"/>
<rect x="294" y="48" width="4" height="4" fill="#BD3636"/>
<rect x="288" y="48" width="4" height="4" fill="#BD3636"/>
<rect x="282" y="66" width="4" height="4" fill="#BD3636"/>
<rect x="300" y="66" width="4" height="4" fill="#BD3636"/>
<rect x="294" y="66" width="4" height="4" fill="#BD3636"/>
<rect x="288" y="66" width="4" height="4" fill="#BD3636"/>
<rect x="282" y="60" width="4" height="4" fill="#BD3636"/>
<rect x="300" y="60" width="4" height="4" fill="#BD3636"/>
<rect x="294" y="60" width="4" height="4" fill="#BD3636"/>
<rect x="288" y="60" width="4" height="4" fill="#BD3636"/>
<rect x="282" y="54" width="4" height="4" fill="#BD3636"/>
<rect x="300" y="54" width="4" height="4" fill="#BD3636"/>
<rect x="294" y="54" width="4" height="4" fill="#BD3636"/>
<rect x="288" y="54" width="4" height="4" fill="#BD3636"/>
<rect x="306" y="48" width="4" height="4" fill="#BD3636"/>
<rect x="324" y="48" width="4" height="4" fill="#BD3636"/>
<rect x="318" y="48" width="4" height="4" fill="#BD3636"/>
<rect x="312" y="48" width="4" height="4" fill="#BD3636"/>
<rect x="306" y="66" width="4" height="4" fill="#BD3636"/>
<rect x="324" y="66" width="4" height="4" fill="#BD3636"/>
<rect x="318" y="66" width="4" height="4" fill="#BD3636"/>
<rect x="312" y="66" width="4" height="4" fill="#BD3636"/>
<rect x="306" y="60" width="4" height="4" fill="#BD3636"/>
<rect x="324" y="60" width="4" height="4" fill="#BD3636"/>
<rect x="318" y="60" width="4" height="4" fill="#BD3636"/>
<rect x="312" y="60" width="4" height="4" fill="#BD3636"/>
<rect x="306" y="54" width="4" height="4" fill="#BD3636"/>
<rect x="324" y="54" width="4" height="4" fill="#BD3636"/>
<rect x="318" y="54" width="4" height="4" fill="#BD3636"/>
<rect x="312" y="54" width="4" height="4" fill="#BD3636"/>
<rect x="306" y="24" width="4" height="4" fill="#BD3636"/>
<rect x="324" y="24" width="4" height="4" fill="#BD3636"/>
<rect x="318" y="24" width="4" height="4" fill="#BD3636"/>
<rect x="312" y="24" width="4" height="4" fill="#BD3636"/>
<rect x="306" y="42" width="4" height="4" fill="#BD3636"/>
<rect x="324" y="42" width="4" height="4" fill="#BD3636"/>
<rect x="318" y="42" width="4" height="4" fill="#BD3636"/>
<rect x="312" y="42" width="4" height="4" fill="#BD3636"/>
<rect x="306" y="36" width="4" height="4" fill="#BD3636"/>
<rect x="324" y="36" width="4" height="4" fill="#BD3636"/>
<rect x="318" y="36" width="4" height="4" fill="#BD3636"/>
<rect x="312" y="36" width="4" height="4" fill="#BD3636"/>
<rect x="306" y="30" width="4" height="4" fill="#BD3636"/>
<rect x="324" y="30" width="4" height="4" fill="#BD3636"/>
<rect x="318" y="30" width="4" height="4" fill="#BD3636"/>
<rect x="312" y="30" width="4" height="4" fill="#BD3636"/>
<rect x="258" width="4" height="4" fill="#BD3636"/>
<rect x="276" width="4" height="4" fill="#BD3636"/>
<rect x="270" width="4" height="4" fill="#BD3636"/>
<rect x="264" width="4" height="4" fill="#BD3636"/>
<rect x="258" y="18" width="4" height="4" fill="#BD3636"/>
<rect x="276" y="18" width="4" height="4" fill="#BD3636"/>
<rect x="270" y="18" width="4" height="4" fill="#BD3636"/>
<rect x="264" y="18" width="4" height="4" fill="#BD3636"/>
<rect x="258" y="12" width="4" height="4" fill="#BD3636"/>
<rect x="276" y="12" width="4" height="4" fill="#BD3636"/>
<rect x="270" y="12" width="4" height="4" fill="#BD3636"/>
<rect x="264" y="12" width="4" height="4" fill="#BD3636"/>
<rect x="258" y="6" width="4" height="4" fill="#BD3636"/>
<rect x="276" y="6" width="4" height="4" fill="#BD3636"/>
<rect x="270" y="6" width="4" height="4" fill="#BD3636"/>
<rect x="264" y="6" width="4" height="4" fill="#BD3636"/>
<rect x="258" y="24" width="4" height="4" fill="#BD3636"/>
<rect x="276" y="24" width="4" height="4" fill="#BD3636"/>
<rect x="270" y="24" width="4" height="4" fill="#BD3636"/>
<rect x="264" y="24" width="4" height="4" fill="#BD3636"/>
<rect x="258" y="42" width="4" height="4" fill="#BD3636"/>
<rect x="276" y="42" width="4" height="4" fill="#BD3636"/>
<rect x="270" y="42" width="4" height="4" fill="#BD3636"/>
<rect x="264" y="42" width="4" height="4" fill="#BD3636"/>
<rect x="258" y="36" width="4" height="4" fill="#BD3636"/>
<rect x="276" y="36" width="4" height="4" fill="#BD3636"/>
<rect x="270" y="36" width="4" height="4" fill="#BD3636"/>
<rect x="264" y="36" width="4" height="4" fill="#BD3636"/>
<rect x="258" y="30" width="4" height="4" fill="#BD3636"/>
<rect x="276" y="30" width="4" height="4" fill="#BD3636"/>
<rect x="270" y="30" width="4" height="4" fill="#BD3636"/>
<rect x="264" y="30" width="4" height="4" fill="#BD3636"/>
<rect x="258" y="48" width="4" height="4" fill="#BD3636"/>
<rect x="276" y="48" width="4" height="4" fill="#BD3636"/>
<rect x="270" y="48" width="4" height="4" fill="#BD3636"/>
<rect x="264" y="48" width="4" height="4" fill="#BD3636"/>
<rect x="258" y="66" width="4" height="4" fill="#BD3636"/>
<rect x="276" y="66" width="4" height="4" fill="#BD3636"/>
<rect x="270" y="66" width="4" height="4" fill="#BD3636"/>
<rect x="264" y="66" width="4" height="4" fill="#BD3636"/>
<rect x="258" y="60" width="4" height="4" fill="#BD3636"/>
<rect x="276" y="60" width="4" height="4" fill="#BD3636"/>
<rect x="270" y="60" width="4" height="4" fill="#BD3636"/>
<rect x="264" y="60" width="4" height="4" fill="#BD3636"/>
<rect x="258" y="54" width="4" height="4" fill="#BD3636"/>
<rect x="276" y="54" width="4" height="4" fill="#BD3636"/>
<rect x="270" y="54" width="4" height="4" fill="#BD3636"/>
<rect x="264" y="54" width="4" height="4" fill="#BD3636"/>
<rect x="258" y="72" width="4" height="4" fill="#BD3636"/>
<rect x="276" y="72" width="4" height="4" fill="#BD3636"/>
<rect x="270" y="72" width="4" height="4" fill="#BD3636"/>
<rect x="264" y="72" width="4" height="4" fill="#BD3636"/>
<rect x="258" y="90" width="4" height="4" fill="#BD3636"/>
<rect x="276" y="90" width="4" height="4" fill="#BD3636"/>
<rect x="270" y="90" width="4" height="4" fill="#BD3636"/>
<rect x="264" y="90" width="4" height="4" fill="#BD3636"/>
<rect x="258" y="84" width="4" height="4" fill="#BD3636"/>
<rect x="276" y="84" width="4" height="4" fill="#BD3636"/>
<rect x="270" y="84" width="4" height="4" fill="#BD3636"/>
<rect x="264" y="84" width="4" height="4" fill="#BD3636"/>
<rect x="258" y="78" width="4" height="4" fill="#BD3636"/>
<rect x="276" y="78" width="4" height="4" fill="#BD3636"/>
<rect x="270" y="78" width="4" height="4" fill="#BD3636"/>
<rect x="264" y="78" width="4" height="4" fill="#BD3636"/>
<rect x="258" y="96" width="4" height="4" fill="#BD3636"/>
<rect x="276" y="96" width="4" height="4" fill="#BD3636"/>
<rect x="270" y="96" width="4" height="4" fill="#BD3636"/>
<rect x="264" y="96" width="4" height="4" fill="#BD3636"/>
<rect x="258" y="114" width="4" height="4" fill="#BD3636"/>
<rect x="276" y="114" width="4" height="4" fill="#BD3636"/>
<rect x="270" y="114" width="4" height="4" fill="#BD3636"/>
<rect x="264" y="114" width="4" height="4" fill="#BD3636"/>
<rect x="258" y="108" width="4" height="4" fill="#BD3636"/>
<rect x="276" y="108" width="4" height="4" fill="#BD3636"/>
<rect x="270" y="108" width="4" height="4" fill="#BD3636"/>
<rect x="264" y="108" width="4" height="4" fill="#BD3636"/>
<rect x="258" y="102" width="4" height="4" fill="#BD3636"/>
<rect x="276" y="102" width="4" height="4" fill="#BD3636"/>
<rect x="270" y="102" width="4" height="4" fill="#BD3636"/>
<rect x="264" y="102" width="4" height="4" fill="#BD3636"/>
<rect x="344" width="4" height="4" fill="#BD3636"/>
<rect x="362" width="4" height="4" fill="#BD3636"/>
<rect x="356" width="4" height="4" fill="#BD3636"/>
<rect x="350" width="4" height="4" fill="#BD3636"/>
<rect x="344" y="18" width="4" height="4" fill="#BD3636"/>
<rect x="362" y="18" width="4" height="4" fill="#BD3636"/>
<rect x="356" y="18" width="4" height="4" fill="#BD3636"/>
<rect x="350" y="18" width="4" height="4" fill="#BD3636"/>
<rect x="344" y="12" width="4" height="4" fill="#BD3636"/>
<rect x="362" y="12" width="4" height="4" fill="#BD3636"/>
<rect x="356" y="12" width="4" height="4" fill="#BD3636"/>
<rect x="350" y="12" width="4" height="4" fill="#BD3636"/>
<rect x="344" y="6" width="4" height="4" fill="#BD3636"/>
<rect x="362" y="6" width="4" height="4" fill="#BD3636"/>
<rect x="356" y="6" width="4" height="4" fill="#BD3636"/>
<rect x="350" y="6" width="4" height="4" fill="#BD3636"/>
<rect x="344" y="24" width="4" height="4" fill="#BD3636"/>
<rect x="362" y="24" width="4" height="4" fill="#BD3636"/>
<rect x="356" y="24" width="4" height="4" fill="#BD3636"/>
<rect x="350" y="24" width="4" height="4" fill="#BD3636"/>
<rect x="344" y="42" width="4" height="4" fill="#BD3636"/>
<rect x="362" y="42" width="4" height="4" fill="#BD3636"/>
<rect x="356" y="42" width="4" height="4" fill="#BD3636"/>
<rect x="350" y="42" width="4" height="4" fill="#BD3636"/>
<rect x="344" y="36" width="4" height="4" fill="#BD3636"/>
<rect x="362" y="36" width="4" height="4" fill="#BD3636"/>
<rect x="356" y="36" width="4" height="4" fill="#BD3636"/>
<rect x="350" y="36" width="4" height="4" fill="#BD3636"/>
<rect x="344" y="30" width="4" height="4" fill="#BD3636"/>
<rect x="362" y="30" width="4" height="4" fill="#BD3636"/>
<rect x="356" y="30" width="4" height="4" fill="#BD3636"/>
<rect x="350" y="30" width="4" height="4" fill="#BD3636"/>
<rect x="344" y="48" width="4" height="4" fill="#BD3636"/>
<rect x="362" y="48" width="4" height="4" fill="#BD3636"/>
<rect x="356" y="48" width="4" height="4" fill="#BD3636"/>
<rect x="350" y="48" width="4" height="4" fill="#BD3636"/>
<rect x="344" y="66" width="4" height="4" fill="#BD3636"/>
<rect x="362" y="66" width="4" height="4" fill="#BD3636"/>
<rect x="356" y="66" width="4" height="4" fill="#BD3636"/>
<rect x="350" y="66" width="4" height="4" fill="#BD3636"/>
<rect x="344" y="60" width="4" height="4" fill="#BD3636"/>
<rect x="362" y="60" width="4" height="4" fill="#BD3636"/>
<rect x="356" y="60" width="4" height="4" fill="#BD3636"/>
<rect x="350" y="60" width="4" height="4" fill="#BD3636"/>
<rect x="344" y="54" width="4" height="4" fill="#BD3636"/>
<rect x="362" y="54" width="4" height="4" fill="#BD3636"/>
<rect x="356" y="54" width="4" height="4" fill="#BD3636"/>
<rect x="350" y="54" width="4" height="4" fill="#BD3636"/>
<rect x="344" y="72" width="4" height="4" fill="#BD3636"/>
<rect x="362" y="72" width="4" height="4" fill="#BD3636"/>
<rect x="356" y="72" width="4" height="4" fill="#BD3636"/>
<rect x="350" y="72" width="4" height="4" fill="#BD3636"/>
<rect x="344" y="90" width="4" height="4" fill="#BD3636"/>
<rect x="362" y="90" width="4" height="4" fill="#BD3636"/>
<rect x="356" y="90" width="4" height="4" fill="#BD3636"/>
<rect x="350" y="90" width="4" height="4" fill="#BD3636"/>
<rect x="344" y="84" width="4" height="4" fill="#BD3636"/>
<rect x="362" y="84" width="4" height="4" fill="#BD3636"/>
<rect x="356" y="84" width="4" height="4" fill="#BD3636"/>
<rect x="350" y="84" width="4" height="4" fill="#BD3636"/>
<rect x="344" y="78" width="4" height="4" fill="#BD3636"/>
<rect x="362" y="78" width="4" height="4" fill="#BD3636"/>
<rect x="356" y="78" width="4" height="4" fill="#BD3636"/>
<rect x="350" y="78" width="4" height="4" fill="#BD3636"/>
<rect x="368" y="72" width="4" height="4" fill="#BD3636"/>
<rect x="386" y="72" width="4" height="4" fill="#BD3636"/>
<rect x="380" y="72" width="4" height="4" fill="#BD3636"/>
<rect x="374" y="72" width="4" height="4" fill="#BD3636"/>
<rect x="368" y="90" width="4" height="4" fill="#BD3636"/>
<rect x="386" y="90" width="4" height="4" fill="#BD3636"/>
<rect x="380" y="90" width="4" height="4" fill="#BD3636"/>
<rect x="374" y="90" width="4" height="4" fill="#BD3636"/>
<rect x="368" y="84" width="4" height="4" fill="#BD3636"/>
<rect x="386" y="84" width="4" height="4" fill="#BD3636"/>
<rect x="380" y="84" width="4" height="4" fill="#BD3636"/>
<rect x="374" y="84" width="4" height="4" fill="#BD3636"/>
<rect x="368" y="78" width="4" height="4" fill="#BD3636"/>
<rect x="386" y="78" width="4" height="4" fill="#BD3636"/>
<rect x="380" y="78" width="4" height="4" fill="#BD3636"/>
<rect x="374" y="78" width="4" height="4" fill="#BD3636"/>
<rect x="392" y="48" width="4" height="4" fill="#BD3636"/>
<rect x="410" y="48" width="4" height="4" fill="#BD3636"/>
<rect x="404" y="48" width="4" height="4" fill="#BD3636"/>
<rect x="398" y="48" width="4" height="4" fill="#BD3636"/>
<rect x="392" y="66" width="4" height="4" fill="#BD3636"/>
<rect x="410" y="66" width="4" height="4" fill="#BD3636"/>
<rect x="404" y="66" width="4" height="4" fill="#BD3636"/>
<rect x="398" y="66" width="4" height="4" fill="#BD3636"/>
<rect x="392" y="60" width="4" height="4" fill="#BD3636"/>
<rect x="410" y="60" width="4" height="4" fill="#BD3636"/>
<rect x="404" y="60" width="4" height="4" fill="#BD3636"/>
<rect x="398" y="60" width="4" height="4" fill="#BD3636"/>
<rect x="392" y="54" width="4" height="4" fill="#BD3636"/>
<rect x="410" y="54" width="4" height="4" fill="#BD3636"/>
<rect x="404" y="54" width="4" height="4" fill="#BD3636"/>
<rect x="398" y="54" width="4" height="4" fill="#BD3636"/>
<rect x="344" y="96" width="4" height="4" fill="#BD3636"/>
<rect x="362" y="96" width="4" height="4" fill="#BD3636"/>
<rect x="356" y="96" width="4" height="4" fill="#BD3636"/>
<rect x="350" y="96" width="4" height="4" fill="#BD3636"/>
<rect x="344" y="114" width="4" height="4" fill="#BD3636"/>
<rect x="362" y="114" width="4" height="4" fill="#BD3636"/>
<rect x="356" y="114" width="4" height="4" fill="#BD3636"/>
<rect x="350" y="114" width="4" height="4" fill="#BD3636"/>
<rect x="344" y="108" width="4" height="4" fill="#BD3636"/>
<rect x="362" y="108" width="4" height="4" fill="#BD3636"/>
<rect x="356" y="108" width="4" height="4" fill="#BD3636"/>
<rect x="350" y="108" width="4" height="4" fill="#BD3636"/>
<rect x="344" y="102" width="4" height="4" fill="#BD3636"/>
<rect x="362" y="102" width="4" height="4" fill="#BD3636"/>
<rect x="356" y="102" width="4" height="4" fill="#BD3636"/>
<rect x="350" y="102" width="4" height="4" fill="#BD3636"/>
<rect x="416" width="4" height="4" fill="#BD3636"/>
<rect x="434" width="4" height="4" fill="#BD3636"/>
<rect x="428" width="4" height="4" fill="#BD3636"/>
<rect x="422" width="4" height="4" fill="#BD3636"/>
<rect x="416" y="18" width="4" height="4" fill="#BD3636"/>
<rect x="434" y="18" width="4" height="4" fill="#BD3636"/>
<rect x="428" y="18" width="4" height="4" fill="#BD3636"/>
<rect x="422" y="18" width="4" height="4" fill="#BD3636"/>
<rect x="416" y="12" width="4" height="4" fill="#BD3636"/>
<rect x="434" y="12" width="4" height="4" fill="#BD3636"/>
<rect x="428" y="12" width="4" height="4" fill="#BD3636"/>
<rect x="422" y="12" width="4" height="4" fill="#BD3636"/>
<rect x="416" y="6" width="4" height="4" fill="#BD3636"/>
<rect x="434" y="6" width="4" height="4" fill="#BD3636"/>
<rect x="428" y="6" width="4" height="4" fill="#BD3636"/>
<rect x="422" y="6" width="4" height="4" fill="#BD3636"/>
<rect x="416" y="24" width="4" height="4" fill="#BD3636"/>
<rect x="434" y="24" width="4" height="4" fill="#BD3636"/>
<rect x="428" y="24" width="4" height="4" fill="#BD3636"/>
<rect x="422" y="24" width="4" height="4" fill="#BD3636"/>
<rect x="416" y="42" width="4" height="4" fill="#BD3636"/>
<rect x="434" y="42" width="4" height="4" fill="#BD3636"/>
<rect x="428" y="42" width="4" height="4" fill="#BD3636"/>
<rect x="422" y="42" width="4" height="4" fill="#BD3636"/>
<rect x="416" y="36" width="4" height="4" fill="#BD3636"/>
<rect x="434" y="36" width="4" height="4" fill="#BD3636"/>
<rect x="428" y="36" width="4" height="4" fill="#BD3636"/>
<rect x="422" y="36" width="4" height="4" fill="#BD3636"/>
<rect x="416" y="30" width="4" height="4" fill="#BD3636"/>
<rect x="434" y="30" width="4" height="4" fill="#BD3636"/>
<rect x="428" y="30" width="4" height="4" fill="#BD3636"/>
<rect x="422" y="30" width="4" height="4" fill="#BD3636"/>
<rect x="416" y="48" width="4" height="4" fill="#BD3636"/>
<rect x="434" y="48" width="4" height="4" fill="#BD3636"/>
<rect x="428" y="48" width="4" height="4" fill="#BD3636"/>
<rect x="422" y="48" width="4" height="4" fill="#BD3636"/>
<rect x="416" y="66" width="4" height="4" fill="#BD3636"/>
<rect x="434" y="66" width="4" height="4" fill="#BD3636"/>
<rect x="428" y="66" width="4" height="4" fill="#BD3636"/>
<rect x="422" y="66" width="4" height="4" fill="#BD3636"/>
<rect x="416" y="60" width="4" height="4" fill="#BD3636"/>
<rect x="434" y="60" width="4" height="4" fill="#BD3636"/>
<rect x="428" y="60" width="4" height="4" fill="#BD3636"/>
<rect x="422" y="60" width="4" height="4" fill="#BD3636"/>
<rect x="416" y="54" width="4" height="4" fill="#BD3636"/>
<rect x="434" y="54" width="4" height="4" fill="#BD3636"/>
<rect x="428" y="54" width="4" height="4" fill="#BD3636"/>
<rect x="422" y="54" width="4" height="4" fill="#BD3636"/>
<rect x="416" y="72" width="4" height="4" fill="#BD3636"/>
<rect x="434" y="72" width="4" height="4" fill="#BD3636"/>
<rect x="428" y="72" width="4" height="4" fill="#BD3636"/>
<rect x="422" y="72" width="4" height="4" fill="#BD3636"/>
<rect x="416" y="90" width="4" height="4" fill="#BD3636"/>
<rect x="434" y="90" width="4" height="4" fill="#BD3636"/>
<rect x="428" y="90" width="4" height="4" fill="#BD3636"/>
<rect x="422" y="90" width="4" height="4" fill="#BD3636"/>
<rect x="416" y="84" width="4" height="4" fill="#BD3636"/>
<rect x="434" y="84" width="4" height="4" fill="#BD3636"/>
<rect x="428" y="84" width="4" height="4" fill="#BD3636"/>
<rect x="422" y="84" width="4" height="4" fill="#BD3636"/>
<rect x="416" y="78" width="4" height="4" fill="#BD3636"/>
<rect x="434" y="78" width="4" height="4" fill="#BD3636"/>
<rect x="428" y="78" width="4" height="4" fill="#BD3636"/>
<rect x="422" y="78" width="4" height="4" fill="#BD3636"/>
<rect x="416" y="96" width="4" height="4" fill="#BD3636"/>
<rect x="434" y="96" width="4" height="4" fill="#BD3636"/>
<rect x="428" y="96" width="4" height="4" fill="#BD3636"/>
<rect x="422" y="96" width="4" height="4" fill="#BD3636"/>
<rect x="416" y="114" width="4" height="4" fill="#BD3636"/>
<rect x="434" y="114" width="4" height="4" fill="#BD3636"/>
<rect x="428" y="114" width="4" height="4" fill="#BD3636"/>
<rect x="422" y="114" width="4" height="4" fill="#BD3636"/>
<rect x="416" y="108" width="4" height="4" fill="#BD3636"/>
<rect x="434" y="108" width="4" height="4" fill="#BD3636"/>
<rect x="428" y="108" width="4" height="4" fill="#BD3636"/>
<rect x="422" y="108" width="4" height="4" fill="#BD3636"/>
<rect x="416" y="102" width="4" height="4" fill="#BD3636"/>
<rect x="434" y="102" width="4" height="4" fill="#BD3636"/>
<rect x="428" y="102" width="4" height="4" fill="#BD3636"/>
<rect x="422" y="102" width="4" height="4" fill="#BD3636"/>
<rect x="48" y="96" width="4" height="4" fill="#BD3636"/>
<rect x="66" y="96" width="4" height="4" fill="#BD3636"/>
<rect x="60" y="96" width="4" height="4" fill="#BD3636"/>
<rect x="54" y="96" width="4" height="4" fill="#BD3636"/>
<rect x="48" y="114" width="4" height="4" fill="#BD3636"/>
<rect x="66" y="114" width="4" height="4" fill="#BD3636"/>
<rect x="60" y="114" width="4" height="4" fill="#BD3636"/>
<rect x="54" y="114" width="4" height="4" fill="#BD3636"/>
<rect x="48" y="108" width="4" height="4" fill="#BD3636"/>
<rect x="66" y="108" width="4" height="4" fill="#BD3636"/>
<rect x="60" y="108" width="4" height="4" fill="#BD3636"/>
<rect x="54" y="108" width="4" height="4" fill="#BD3636"/>
<rect x="48" y="102" width="4" height="4" fill="#BD3636"/>
<rect x="66" y="102" width="4" height="4" fill="#BD3636"/>
<rect x="60" y="102" width="4" height="4" fill="#BD3636"/>
<rect x="54" y="102" width="4" height="4" fill="#BD3636"/>
<rect y="96" width="4" height="4" fill="#BD3636"/>
<rect x="18" y="96" width="4" height="4" fill="#BD3636"/>
<rect x="12" y="96" width="4" height="4" fill="#BD3636"/>
<rect x="6" y="96" width="4" height="4" fill="#BD3636"/>
<rect y="114" width="4" height="4" fill="#BD3636"/>
<rect x="18" y="114" width="4" height="4" fill="#BD3636"/>
<rect x="12" y="114" width="4" height="4" fill="#BD3636"/>
<rect x="6" y="114" width="4" height="4" fill="#BD3636"/>
<rect y="108" width="4" height="4" fill="#BD3636"/>
<rect x="18" y="108" width="4" height="4" fill="#BD3636"/>
<rect x="12" y="108" width="4" height="4" fill="#BD3636"/>
<rect x="6" y="108" width="4" height="4" fill="#BD3636"/>
<rect y="102" width="4" height="4" fill="#BD3636"/>
<rect x="18" y="102" width="4" height="4" fill="#BD3636"/>
<rect x="12" y="102" width="4" height="4" fill="#BD3636"/>
<rect x="6" y="102" width="4" height="4" fill="#BD3636"/>
</svg>
